<svg xmlns="http://www.w3.org/2000/svg" width="340.92592794054644" height="476.444445072378"><rect id="backgroundrect" width="100%" height="100%" x="0" y="0" fill="none" stroke="none" data-darkreader-inline-fill="" data-darkreader-inline-stroke="" style="--darkreader-inline-fill:none; --darkreader-inline-stroke:none;"/><linearGradient id="a" x1="0.5000006260658771" y1="1.00001246370889" x2="0.5000006260658771" y2="0.000012086020741877722"><stop offset=".387" stop-color="#d1d3d4" stop-opacity="0"/><stop offset="1" stop-color="#d1d3d4"/></linearGradient><linearGradient id="b" x1="0.4999909401759359" y1="1.0000116272668855" x2="0.4999909401759359" y2="0.00001289899920117043"><stop offset=".387" stop-color="#d1d3d4" stop-opacity="0"/><stop offset="1" stop-color="#d1d3d4"/></linearGradient><linearGradient id="c" x1="1.5725441342373993e-7" y1="0.5000072053780942" x2="0.9999951251131839" y2="0.5000072053780942"><stop offset="0" stop-color="#e8e7e5"/><stop offset="1" stop-color="#fff"/></linearGradient><linearGradient id="d" x1="3.6211125636600644e-7" y1="0.5000007421227382" x2="0.9999955098204211" y2="0.5000007421227382"><stop offset="0" stop-color="#e8e7e5"/><stop offset="1" stop-color="#fff"/></linearGradient><g class="currentLayer" style=""><title>Layer 1</title><path d="M304.75926208496094,436.34288931274415 L168.54926208496096,473.01888931274414 l-136.212,-36.676 l-31.432,-340.525 h335.29 L304.75926208496094,436.34288931274415 z" fill="#2062af" id="svg_2" data-darkreader-inline-fill="" style="--darkreader-inline-fill:#1a4e8c;" class=""/><path d="M168.54826208496092,123.39988931274414 v320.367 l0.30800000000000005,0.08400000000000002 l110.229,-29.682 l25.443,-290.769 h-135.98 z" fill="#3c9cd7" id="svg_3" data-darkreader-inline-fill="" style="--darkreader-inline-fill:#216f9f;" class=""/><path d="M91.24426208496095,45.78788931274414 V25.51988931274414 h29.571 V3.3418893127441436 h-51.749 v62.684 h51.749 V45.78788931274414 h-29.571 zm82.766,-20.268 h20.674 V3.3418893127441436 h-51.754 v22.178 c6.924,6.924 10.535,10.238 20.549,20.252 c-5.854,0 -20.549,0.021000000000000005 -20.549,0.020000000000000004 v20.234 h51.754 V45.78788931274414 l-20.674,-20.268 zm73.352,0 h20.673000000000002 V3.3418893127441436 H216.27926208496092 v22.178 c6.924,6.924 10.537,10.238 20.551,20.252 c-5.852,0 -20.551,0.021000000000000005 -20.551,0.020000000000000004 v20.234 h51.757 V45.78788931274414 l-20.674,-20.268 z" id="svg_4" class=""/><path d="M168.42726208496094,208.54488931274415 l-97.49,40.602 l3.233,40.199 l94.257,-40.301 l100.265,-42.868 l4.157,-41.122 l-104.422,43.49 z" fill="#fff" id="svg_5" data-darkreader-inline-fill="" style="--darkreader-inline-fill:#181a1b;" class=""/><path d="M70.93626208496093,249.14688931274412 l3.233,40.199 l94.257,-40.301 v-40.5 l-97.49,40.602 z" fill="url(#a)" id="svg_6" class=""/><path d="M272.8492620849609,165.05588931274414 l-104.422,43.489 v40.5 l100.265,-42.868 l4.157,-41.121 z" fill="url(#b)" id="svg_7" class=""/><path d="M71.08626208496094,249.14688931274412 l3.234,40.199 l144.625,0.461 l-3.235,53.598 l-47.59,13.398 l-45.748,-11.551 l-2.7720000000000002,-33.268 h-42.508 l5.545,64.225 l85.945,25.412 l85.479,-24.951 l11.09,-127.523 H71.08626208496094 z" fill="url(#c)" id="svg_8" class=""/><path d="M168.42726208496094,249.14688931274412 h-97.49 l3.233,40.199 l94.257,0.30100000000000005 v-40.5 zm0,107.528 l-0.462,0.129 l-45.742,-11.551 l-2.7720000000000002,-33.268 h-42.507 l5.5440000000000005,64.225 l85.939,25.412 v-44.947 z" opacity=".05" id="svg_9" class=""/><path d="M62.157262084960934,165.05588931274414 H272.8492620849609 l-4.157,41.122 H67.23926208496093 l-5.082,-41.122 z" fill="url(#d)" id="svg_10" class=""/><path d="M168.42726208496094,165.05588931274414 h-106.27 l5.082,41.122 h101.188 v-41.122 z" opacity=".05" id="svg_11" class=""/></g></svg>