<svg xmlns="http://www.w3.org/2000/svg" width="139.5555556340472" height="100.03703708936484" style=""><rect id="backgroundrect" width="100%" height="100%" x="0" y="0" fill="none" stroke="none" data-darkreader-inline-fill="" data-darkreader-inline-stroke="" style="--darkreader-inline-fill:none; --darkreader-inline-stroke:none;" class=""/><g class="currentLayer" style=""><title>Layer 1</title><path d="M36.35029635810852,90.62003689575195 h-5.175 c-0.18300000000000002,-8.735 -0.6870000000000002,-16.947 -1.5110000000000001,-24.642 h-0.04600000000000001 l-7.8790000000000004,24.642 h-3.94 l-7.832,-24.642 h-0.04500000000000001 c-0.5810000000000001,7.388 -0.9470000000000001,15.602 -1.099,24.642 H4.106296358108521 c0.30400000000000005,-10.993 1.068,-21.299 2.289,-30.919 h6.414 l7.465,22.719 h0.04600000000000001 l7.511,-22.719 h6.1370000000000005 c1.344,11.268 2.138,21.575 2.382,30.919 M58.79329635810852,67.80803689575195 c-2.107,11.434 -4.8870000000000005,19.742 -8.337,24.928 c-2.688,3.992 -5.633,5.99 -8.84,5.99 c-0.8550000000000001,0 -1.9100000000000001,-0.258 -3.16,-0.77 v-2.757 c0.6110000000000001,0.08800000000000002 1.328,0.138 2.152,0.138 c1.498,0 2.702,-0.41200000000000003 3.62,-1.238 c1.098,-1.006 1.6470000000000002,-2.137 1.6470000000000002,-3.388 c0,-0.8580000000000001 -0.42800000000000005,-2.612 -1.282,-5.268 L38.91429635810852,67.80703689575195 h5.084 l4.076,13.19 c0.916,2.995 1.298,5.086 1.145,6.277 c2.229,-5.953 3.786,-12.444 4.673,-19.468 h4.901 v0.0020000000000000005 z" fill="#5d87a1" id="svg_2" data-darkreader-inline-fill="" style="--darkreader-inline-fill:#4a6c81;" class=""/><path d="M36.35029635810852,90.62003689575195 h-5.175 c-0.18300000000000005,-8.735 -0.6870000000000004,-16.947 -1.5110000000000001,-24.642 h-0.04600000000000002 l-7.8790000000000004,24.642 h-3.94 l-7.832,-24.642 h-0.04500000000000002 c-0.5810000000000002,7.388 -0.9470000000000002,15.602 -1.099,24.642 H4.106296358108521 c0.3040000000000001,-10.993 1.068,-21.299 2.289,-30.919 h6.414 l7.465,22.719 h0.04600000000000002 l7.511,-22.719 h6.1370000000000005 c1.344,11.268 2.138,21.575 2.382,30.919 M58.79329635810852,67.80803689575195 c-2.107,11.434 -4.8870000000000005,19.742 -8.337,24.928 c-2.688,3.992 -5.633,5.99 -8.84,5.99 c-0.8550000000000002,0 -1.9100000000000001,-0.258 -3.16,-0.77 v-2.757 c0.6110000000000002,0.08800000000000004 1.328,0.138 2.152,0.138 c1.498,0 2.702,-0.4120000000000001 3.62,-1.238 c1.098,-1.006 1.6470000000000002,-2.137 1.6470000000000002,-3.388 c0,-0.8580000000000002 -0.4280000000000001,-2.612 -1.282,-5.268 L38.91429635810852,67.80703689575195 h5.084 l4.076,13.19 c0.916,2.995 1.298,5.086 1.145,6.277 c2.229,-5.953 3.786,-12.444 4.673,-19.468 h4.901 v0.002000000000000001 z" fill="#5d87a1" data-darkreader-inline-fill="" style="--darkreader-inline-fill:#4a6c81;" class="" id="svg_10"/><path d="M36.35029635810852,90.62003689575195 h-5.175 c-0.18300000000000008,-8.735 -0.6870000000000006,-16.947 -1.5110000000000001,-24.642 h-0.046000000000000034 l-7.8790000000000004,24.642 h-3.94 l-7.832,-24.642 h-0.04500000000000003 c-0.5810000000000003,7.388 -0.9470000000000003,15.602 -1.099,24.642 H4.106296358108521 c0.30400000000000016,-10.993 1.068,-21.299 2.289,-30.919 h6.414 l7.465,22.719 h0.046000000000000034 l7.511,-22.719 h6.1370000000000005 c1.344,11.268 2.138,21.575 2.382,30.919 M58.79329635810852,67.80803689575195 c-2.107,11.434 -4.8870000000000005,19.742 -8.337,24.928 c-2.688,3.992 -5.633,5.99 -8.84,5.99 c-0.8550000000000003,0 -1.9100000000000001,-0.258 -3.16,-0.77 v-2.757 c0.6110000000000003,0.08800000000000006 1.328,0.138 2.152,0.138 c1.498,0 2.702,-0.41200000000000014 3.62,-1.238 c1.098,-1.006 1.6470000000000002,-2.137 1.6470000000000002,-3.388 c0,-0.8580000000000003 -0.42800000000000016,-2.612 -1.282,-5.268 L38.91429635810852,67.80703689575195 h5.084 l4.076,13.19 c0.916,2.995 1.298,5.086 1.145,6.277 c2.229,-5.953 3.786,-12.444 4.673,-19.468 h4.901 v0.0020000000000000013 z" fill="#5d87a1" data-darkreader-inline-fill="" style="--darkreader-inline-fill:#4a6c81;" class="" id="svg_11"/><path d="M127.67829635810853,90.62003689575195 h-14.7 V59.701036895751955 h4.945 v27.113 h9.755 v3.806 zM109.13029635810852,91.36703689575195 l-5.684,-2.805 c0.504,-0.41400000000000015 0.986,-0.8620000000000003 1.42,-1.381 c2.416,-2.838 3.621,-7.035 3.621,-12.594 c0,-10.229 -4.014,-15.346 -12.045,-15.346 c-3.938,0 -7.01,1.298 -9.207,3.895 c-2.414,2.84 -3.619,7.022 -3.619,12.551 c0,5.4350000000000005 1.068,9.422 3.205,11.951 c1.955,2.291 4.902,3.438 8.843,3.438 c1.47,0 2.819,-0.18000000000000008 4.048,-0.543 l7.4,4.308 l2.018,-3.474 zm-18.413,-6.934 c-1.252,-2.014 -1.8780000000000001,-5.248 -1.8780000000000001,-9.707 c0,-7.785 2.365,-11.682 7.1,-11.682 c2.475,0 4.289,0.932 5.449,2.792 c1.25,2.017 1.879,5.222 1.879,9.619 c0,7.849 -2.367,11.774000000000001 -7.099,11.774000000000001 c-2.476,0.0010000000000000007 -4.29,-0.928 -5.451,-2.7960000000000003 M81.46129635810853,82.05003689575196 c0,2.622 -0.9620000000000003,4.773 -2.8840000000000003,6.458 c-1.924,1.6780000000000006 -4.504,2.519 -7.737,2.519 c-3.024,0 -5.956,-0.9660000000000003 -8.794,-2.888 l1.3290000000000002,-2.6550000000000002 c2.442,1.223 4.6530000000000005,1.831 6.638,1.831 c1.863,0 3.319,-0.41300000000000014 4.375,-1.232 c1.055,-0.8220000000000003 1.6840000000000006,-1.975 1.6840000000000006,-3.433 c0,-1.8370000000000002 -1.2810000000000001,-3.407 -3.6310000000000002,-4.722 c-2.167,-1.19 -6.501,-3.678 -6.501,-3.678 c-2.349,-1.7120000000000002 -3.525,-3.55 -3.525,-6.578 c0,-2.5060000000000002 0.8770000000000003,-4.529 2.632,-6.068 c1.7570000000000001,-1.545 4.024,-2.315 6.803,-2.315 c2.87,0 5.479,0.7690000000000003 7.829,2.291 l-1.192,2.656 c-2.01,-0.8540000000000003 -3.9939999999999998,-1.2810000000000001 -5.9510000000000005,-1.2810000000000001 c-1.585,0 -2.809,0.38100000000000017 -3.66,1.146 c-0.8580000000000003,0.7620000000000003 -1.387,1.737 -1.387,2.933 c0,1.828 1.308,3.418 3.722,4.759 c2.196,1.192 6.638,3.723 6.638,3.723 c2.409,1.709 3.612,3.5300000000000002 3.612,6.534 " fill="#f8981d" data-darkreader-inline-fill="" style="--darkreader-inline-fill:#b96a06;" class="" id="svg_12"/><path d="M133.88629635810852,49.34503689575196 c-2.99,-0.07600000000000004 -5.305,0.2250000000000001 -7.248,1.047 c-0.561,0.2240000000000001 -1.453,0.2240000000000001 -1.5310000000000001,0.933 c0.30300000000000016,0.30000000000000016 0.3380000000000003,0.784 0.6010000000000003,1.198 c0.4480000000000002,0.7470000000000003 1.229,1.7520000000000002 1.9420000000000002,2.276 c0.783,0.6000000000000003 1.569,1.194 2.3930000000000002,1.717 c1.453,0.8990000000000004 3.1,1.4220000000000002 4.516,2.318 c0.8250000000000003,0.521 1.645,1.195 2.471,1.7560000000000002 c0.406,0.29900000000000015 0.6660000000000005,0.784 1.193,0.971 v-0.11400000000000005 c-0.264,-0.3360000000000003 -0.3390000000000003,-0.8220000000000003 -0.5980000000000003,-1.196 l-1.122,-1.082 c-1.084,-1.456 -2.431,-2.7270000000000003 -3.8840000000000003,-3.771 c-1.196,-0.8240000000000003 -3.8120000000000003,-1.944 -4.297,-3.322 l-0.07600000000000004,-0.07600000000000004 c0.8220000000000003,-0.07700000000000004 1.7970000000000002,-0.37500000000000017 2.5780000000000003,-0.6040000000000003 c1.271,-0.3350000000000003 2.43,-0.259 3.734,-0.5940000000000003 c0.6000000000000003,-0.15000000000000008 1.195,-0.3380000000000003 1.7970000000000002,-0.523 v-0.3370000000000003 c-0.6760000000000006,-0.6730000000000006 -1.158,-1.5670000000000002 -1.8690000000000002,-2.203 c-1.9020000000000001,-1.6430000000000002 -3.998,-3.25 -6.164,-4.595 c-1.1600000000000001,-0.7490000000000003 -2.652,-1.231 -3.887,-1.868 c-0.4450000000000002,-0.2250000000000001 -1.195,-0.3360000000000003 -1.457,-0.7100000000000003 c-0.6700000000000006,-0.8220000000000003 -1.047,-1.904 -1.533,-2.8770000000000002 c-1.08,-2.053 -2.129,-4.331 -3.061,-6.502 c-0.6740000000000006,-1.456 -1.084,-2.91 -1.9060000000000001,-4.257 c-3.85,-6.35 -8.031,-10.196 -14.457,-13.971 c-1.381,-0.786 -3.024,-1.121 -4.779,-1.533 l-2.803,-0.14800000000000008 c-0.5980000000000003,-0.262 -1.197,-0.973 -1.719,-1.3090000000000002 c-2.132,-1.344 -7.621,-4.257 -9.189,-0.41100000000000014 c-1.01,2.431 1.494,4.821 2.354,6.054 c0.6350000000000003,0.8560000000000003 1.458,1.83 1.9020000000000001,2.802 c0.263,0.6350000000000003 0.3370000000000003,1.3090000000000002 0.6000000000000003,1.98 c0.5980000000000003,1.6440000000000001 1.157,3.473 1.943,5.007 c0.41000000000000014,0.782 0.8570000000000003,1.604 1.381,2.3120000000000003 c0.30000000000000016,0.41400000000000015 0.8220000000000003,0.5970000000000003 0.936,1.272 c-0.521,0.7440000000000003 -0.562,1.867 -0.8610000000000003,2.801 c-1.344,4.221 -0.8190000000000003,9.45 1.086,12.552 c0.5960000000000003,0.934 2.018,2.99 3.92,2.202 c1.6840000000000006,-0.6720000000000006 1.311,-2.801 1.795,-4.668 c0.11100000000000004,-0.451 0.03800000000000001,-0.7470000000000003 0.262,-1.043 v0.07300000000000002 c0.521,1.045 1.047,2.052 1.53,3.1 c1.159,1.8290000000000002 3.177,3.7350000000000003 4.8580000000000005,5.002 c0.8950000000000004,0.6760000000000006 1.604,1.832 2.725,2.245 V51.13703689575195 h-0.07400000000000002 c-0.2270000000000001,-0.3350000000000003 -0.559,-0.48500000000000015 -0.8570000000000003,-0.7450000000000003 c-0.6740000000000006,-0.6730000000000006 -1.42,-1.495 -1.943,-2.241 c-1.566,-2.093 -2.952,-4.41 -4.182,-6.801 c-0.6020000000000003,-1.1600000000000001 -1.121,-2.428 -1.606,-3.5860000000000003 c-0.2260000000000001,-0.4470000000000002 -0.2260000000000001,-1.121 -0.6010000000000003,-1.346 c-0.562,0.8210000000000003 -1.381,1.532 -1.791,2.5380000000000003 c-0.7110000000000003,1.609 -0.785,3.588 -1.049,5.646 l-0.14700000000000008,0.07200000000000002 c-1.19,-0.29900000000000015 -1.604,-1.53 -2.056,-2.575 c-1.119,-2.654 -1.307,-6.914 -0.3360000000000003,-9.975999999999999 c0.26,-0.783 1.385,-3.249 0.936,-3.995 c-0.2250000000000001,-0.7150000000000003 -0.973,-1.122 -1.383,-1.685 c-0.48200000000000015,-0.7080000000000003 -1.01,-1.604 -1.346,-2.39 c-0.8960000000000004,-2.091 -1.347,-4.408 -2.3120000000000003,-6.498 c-0.451,-0.974 -1.234,-1.982 -1.868,-2.879 c-0.7120000000000003,-1.008 -1.495,-1.718 -2.058,-2.9130000000000003 c-0.18600000000000008,-0.41100000000000014 -0.4470000000000002,-1.083 -0.14800000000000008,-1.53 c0.07300000000000002,-0.30000000000000016 0.2250000000000001,-0.41200000000000014 0.523,-0.48700000000000015 c0.48400000000000015,-0.40900000000000014 1.867,0.11100000000000004 2.352,0.3360000000000003 c1.385,0.56 2.543,1.083 3.6990000000000007,1.867 c0.523,0.37500000000000017 1.084,1.085 1.7550000000000003,1.272 h0.786 c1.193,0.26 2.5380000000000003,0.07200000000000002 3.661,0.41000000000000014 c1.979,0.6360000000000003 3.7720000000000002,1.569 5.38,2.576 c4.893,3.103 8.928,7.5120000000000005 11.652000000000001,12.778 c0.4470000000000002,0.8580000000000003 0.6370000000000003,1.6440000000000001 1.045,2.539 c0.787,1.832 1.7600000000000002,3.7 2.541,5.493 c0.785,1.7550000000000003 1.533,3.547 2.654,5.005 c0.559,0.784 2.805,1.195 3.8120000000000003,1.606 c0.7450000000000003,0.3350000000000003 1.905,0.6330000000000003 2.577,1.044 c1.271,0.783 2.537,1.6820000000000006 3.732,2.543 c0.5950000000000003,0.4480000000000002 2.465,1.3820000000000001 2.576,2.13 M95.78029635810852,16.881036895751954 a5.82,5.82 0 0 0 -1.529,0.18800000000000008 v0.07500000000000002 h0.07200000000000002 c0.30100000000000016,0.5970000000000003 0.8240000000000003,1.011 1.197,1.532 c0.30100000000000016,0.5990000000000003 0.562,1.193 0.8570000000000003,1.791 l0.07200000000000002,-0.07400000000000002 c0.527,-0.37300000000000016 0.789,-0.971 0.789,-1.868 c-0.2270000000000001,-0.264 -0.262,-0.522 -0.451,-0.784 c-0.22000000000000008,-0.37400000000000017 -0.7050000000000003,-0.56 -1.007,-0.8600000000000003 " fill="#5d87a1" data-darkreader-inline-fill="" style="--darkreader-inline-fill:#4a6c81;" class="" id="svg_13"/><path d="M137.44429635810852,90.61503689575196 h0.774 v-3.7880000000000003 h-1.161 l-0.9470000000000003,2.585 l-1.029,-2.585 h-1.118 v3.7880000000000003 h0.7310000000000003 v-2.882 h0.04100000000000002 l1.078,2.882 h0.557 l1.074,-2.882 v2.882 zm-6.235,0 h0.8190000000000003 v-3.146 h1.072 v-0.6430000000000003 h-3.008 v0.6430000000000003 h1.115 l0.0020000000000000013,3.146 z" fill="#f8981d" data-darkreader-inline-fill="" style="--darkreader-inline-fill:#f9a02f;" class="" id="svg_14"/><path d="M127.67829635810853,90.62003689575195 h-14.7 V59.701036895751955 h4.945 v27.113 h9.755 v3.806 zM109.13029635810852,91.36703689575195 l-5.684,-2.805 c0.504,-0.4140000000000001 0.986,-0.8620000000000002 1.42,-1.381 c2.416,-2.838 3.621,-7.035 3.621,-12.594 c0,-10.229 -4.014,-15.346 -12.045,-15.346 c-3.938,0 -7.01,1.298 -9.207,3.895 c-2.414,2.84 -3.619,7.022 -3.619,12.551 c0,5.4350000000000005 1.068,9.422 3.205,11.951 c1.955,2.291 4.902,3.438 8.843,3.438 c1.47,0 2.819,-0.18000000000000005 4.048,-0.543 l7.4,4.308 l2.018,-3.474 zm-18.413,-6.934 c-1.252,-2.014 -1.8780000000000001,-5.248 -1.8780000000000001,-9.707 c0,-7.785 2.365,-11.682 7.1,-11.682 c2.475,0 4.289,0.932 5.449,2.792 c1.25,2.017 1.879,5.222 1.879,9.619 c0,7.849 -2.367,11.774000000000001 -7.099,11.774000000000001 c-2.476,0.0010000000000000005 -4.29,-0.928 -5.451,-2.7960000000000003 M81.46129635810853,82.05003689575196 c0,2.622 -0.9620000000000002,4.773 -2.8840000000000003,6.458 c-1.924,1.6780000000000004 -4.504,2.519 -7.737,2.519 c-3.024,0 -5.956,-0.9660000000000002 -8.794,-2.888 l1.3290000000000002,-2.6550000000000002 c2.442,1.223 4.6530000000000005,1.831 6.638,1.831 c1.863,0 3.319,-0.4130000000000001 4.375,-1.232 c1.055,-0.8220000000000002 1.6840000000000004,-1.975 1.6840000000000004,-3.433 c0,-1.8370000000000002 -1.2810000000000001,-3.407 -3.6310000000000002,-4.722 c-2.167,-1.19 -6.501,-3.678 -6.501,-3.678 c-2.349,-1.7120000000000002 -3.525,-3.55 -3.525,-6.578 c0,-2.5060000000000002 0.8770000000000002,-4.529 2.632,-6.068 c1.7570000000000001,-1.545 4.024,-2.315 6.803,-2.315 c2.87,0 5.479,0.7690000000000002 7.829,2.291 l-1.192,2.656 c-2.01,-0.8540000000000002 -3.9939999999999998,-1.2810000000000001 -5.9510000000000005,-1.2810000000000001 c-1.585,0 -2.809,0.3810000000000001 -3.66,1.146 c-0.8580000000000002,0.7620000000000002 -1.387,1.737 -1.387,2.933 c0,1.828 1.308,3.418 3.722,4.759 c2.196,1.192 6.638,3.723 6.638,3.723 c2.409,1.709 3.612,3.5300000000000002 3.612,6.534 " fill="#f8981d" data-darkreader-inline-fill="" style="--darkreader-inline-fill:#b96a06;" class="" id="svg_15"/><path d="M133.88629635810852,49.34503689575196 c-2.99,-0.07600000000000003 -5.305,0.22500000000000006 -7.248,1.047 c-0.561,0.22400000000000006 -1.453,0.22400000000000006 -1.5310000000000001,0.933 c0.3030000000000001,0.3000000000000001 0.3380000000000002,0.784 0.6010000000000002,1.198 c0.4480000000000001,0.7470000000000002 1.229,1.7520000000000002 1.9420000000000002,2.276 c0.783,0.6000000000000002 1.569,1.194 2.3930000000000002,1.717 c1.453,0.8990000000000002 3.1,1.4220000000000002 4.516,2.318 c0.8250000000000002,0.521 1.645,1.195 2.471,1.7560000000000002 c0.406,0.2990000000000001 0.6660000000000003,0.784 1.193,0.971 v-0.11400000000000003 c-0.264,-0.3360000000000002 -0.3390000000000002,-0.8220000000000002 -0.5980000000000002,-1.196 l-1.122,-1.082 c-1.084,-1.456 -2.431,-2.7270000000000003 -3.8840000000000003,-3.771 c-1.196,-0.8240000000000002 -3.8120000000000003,-1.944 -4.297,-3.322 l-0.07600000000000003,-0.07600000000000003 c0.8220000000000002,-0.07700000000000003 1.7970000000000002,-0.3750000000000001 2.5780000000000003,-0.6040000000000002 c1.271,-0.3350000000000002 2.43,-0.259 3.734,-0.5940000000000002 c0.6000000000000002,-0.15000000000000005 1.195,-0.3380000000000002 1.7970000000000002,-0.523 v-0.3370000000000002 c-0.6760000000000004,-0.6730000000000004 -1.158,-1.5670000000000002 -1.8690000000000002,-2.203 c-1.9020000000000001,-1.6430000000000002 -3.998,-3.25 -6.164,-4.595 c-1.1600000000000001,-0.7490000000000002 -2.652,-1.231 -3.887,-1.868 c-0.4450000000000001,-0.22500000000000006 -1.195,-0.3360000000000002 -1.457,-0.7100000000000002 c-0.6700000000000004,-0.8220000000000002 -1.047,-1.904 -1.533,-2.8770000000000002 c-1.08,-2.053 -2.129,-4.331 -3.061,-6.502 c-0.6740000000000004,-1.456 -1.084,-2.91 -1.9060000000000001,-4.257 c-3.85,-6.35 -8.031,-10.196 -14.457,-13.971 c-1.381,-0.786 -3.024,-1.121 -4.779,-1.533 l-2.803,-0.14800000000000005 c-0.5980000000000002,-0.262 -1.197,-0.973 -1.719,-1.3090000000000002 c-2.132,-1.344 -7.621,-4.257 -9.189,-0.4110000000000001 c-1.01,2.431 1.494,4.821 2.354,6.054 c0.6350000000000002,0.8560000000000002 1.458,1.83 1.9020000000000001,2.802 c0.263,0.6350000000000002 0.3370000000000002,1.3090000000000002 0.6000000000000002,1.98 c0.5980000000000002,1.6440000000000001 1.157,3.473 1.943,5.007 c0.4100000000000001,0.782 0.8570000000000002,1.604 1.381,2.3120000000000003 c0.3000000000000001,0.4140000000000001 0.8220000000000002,0.5970000000000002 0.936,1.272 c-0.521,0.7440000000000002 -0.562,1.867 -0.8610000000000002,2.801 c-1.344,4.221 -0.8190000000000002,9.45 1.086,12.552 c0.5960000000000002,0.934 2.018,2.99 3.92,2.202 c1.6840000000000004,-0.6720000000000004 1.311,-2.801 1.795,-4.668 c0.11100000000000003,-0.451 0.03800000000000001,-0.7470000000000002 0.262,-1.043 v0.07300000000000002 c0.521,1.045 1.047,2.052 1.53,3.1 c1.159,1.8290000000000002 3.177,3.7350000000000003 4.8580000000000005,5.002 c0.8950000000000002,0.6760000000000004 1.604,1.832 2.725,2.245 V51.13703689575195 h-0.07400000000000002 c-0.22700000000000006,-0.3350000000000002 -0.559,-0.4850000000000001 -0.8570000000000002,-0.7450000000000002 c-0.6740000000000004,-0.6730000000000004 -1.42,-1.495 -1.943,-2.241 c-1.566,-2.093 -2.952,-4.41 -4.182,-6.801 c-0.6020000000000002,-1.1600000000000001 -1.121,-2.428 -1.606,-3.5860000000000003 c-0.22600000000000006,-0.4470000000000001 -0.22600000000000006,-1.121 -0.6010000000000002,-1.346 c-0.562,0.8210000000000002 -1.381,1.532 -1.791,2.5380000000000003 c-0.7110000000000002,1.609 -0.785,3.588 -1.049,5.646 l-0.14700000000000005,0.07200000000000002 c-1.19,-0.2990000000000001 -1.604,-1.53 -2.056,-2.575 c-1.119,-2.654 -1.307,-6.914 -0.3360000000000002,-9.975999999999999 c0.26,-0.783 1.385,-3.249 0.936,-3.995 c-0.22500000000000006,-0.7150000000000002 -0.973,-1.122 -1.383,-1.685 c-0.4820000000000001,-0.7080000000000002 -1.01,-1.604 -1.346,-2.39 c-0.8960000000000002,-2.091 -1.347,-4.408 -2.3120000000000003,-6.498 c-0.451,-0.974 -1.234,-1.982 -1.868,-2.879 c-0.7120000000000002,-1.008 -1.495,-1.718 -2.058,-2.9130000000000003 c-0.18600000000000005,-0.4110000000000001 -0.4470000000000001,-1.083 -0.14800000000000005,-1.53 c0.07300000000000002,-0.3000000000000001 0.22500000000000006,-0.4120000000000001 0.523,-0.4870000000000001 c0.4840000000000001,-0.4090000000000001 1.867,0.11100000000000003 2.352,0.3360000000000002 c1.385,0.56 2.543,1.083 3.6990000000000007,1.867 c0.523,0.3750000000000001 1.084,1.085 1.7550000000000003,1.272 h0.786 c1.193,0.26 2.5380000000000003,0.07200000000000002 3.661,0.4100000000000001 c1.979,0.6360000000000002 3.7720000000000002,1.569 5.38,2.576 c4.893,3.103 8.928,7.5120000000000005 11.652000000000001,12.778 c0.4470000000000001,0.8580000000000002 0.6370000000000002,1.6440000000000001 1.045,2.539 c0.787,1.832 1.7600000000000002,3.7 2.541,5.493 c0.785,1.7550000000000003 1.533,3.547 2.654,5.005 c0.559,0.784 2.805,1.195 3.8120000000000003,1.606 c0.7450000000000002,0.3350000000000002 1.905,0.6330000000000002 2.577,1.044 c1.271,0.783 2.537,1.6820000000000004 3.732,2.543 c0.5950000000000002,0.4480000000000001 2.465,1.3820000000000001 2.576,2.13 M95.78029635810852,16.881036895751954 a5.82,5.82 0 0 0 -1.529,0.18800000000000006 v0.07500000000000002 h0.07200000000000002 c0.3010000000000001,0.5970000000000002 0.8240000000000002,1.011 1.197,1.532 c0.3010000000000001,0.5990000000000002 0.562,1.193 0.8570000000000002,1.791 l0.07200000000000002,-0.07400000000000002 c0.527,-0.3730000000000001 0.789,-0.971 0.789,-1.868 c-0.22700000000000006,-0.264 -0.262,-0.522 -0.451,-0.784 c-0.22000000000000006,-0.3740000000000001 -0.7050000000000002,-0.56 -1.007,-0.8600000000000002 " fill="#5d87a1" data-darkreader-inline-fill="" style="--darkreader-inline-fill:#4a6c81;" class="" id="svg_16"/><path d="M127.67829635810853,90.62003689575195 h-14.7 V59.701036895751955 h4.945 v27.113 h9.755 v3.806 zM109.13029635810852,91.36703689575195 l-5.684,-2.805 c0.504,-0.4140000000000001 0.986,-0.8620000000000002 1.42,-1.381 c2.416,-2.838 3.621,-7.035 3.621,-12.594 c0,-10.229 -4.014,-15.346 -12.045,-15.346 c-3.938,0 -7.01,1.298 -9.207,3.895 c-2.414,2.84 -3.619,7.022 -3.619,12.551 c0,5.4350000000000005 1.068,9.422 3.205,11.951 c1.955,2.291 4.902,3.438 8.843,3.438 c1.47,0 2.819,-0.18000000000000005 4.048,-0.543 l7.4,4.308 l2.018,-3.474 zm-18.413,-6.934 c-1.252,-2.014 -1.8780000000000001,-5.248 -1.8780000000000001,-9.707 c0,-7.785 2.365,-11.682 7.1,-11.682 c2.475,0 4.289,0.932 5.449,2.792 c1.25,2.017 1.879,5.222 1.879,9.619 c0,7.849 -2.367,11.774000000000001 -7.099,11.774000000000001 c-2.476,0.0010000000000000005 -4.29,-0.928 -5.451,-2.7960000000000003 M81.46129635810853,82.05003689575196 c0,2.622 -0.9620000000000002,4.773 -2.8840000000000003,6.458 c-1.924,1.6780000000000004 -4.504,2.519 -7.737,2.519 c-3.024,0 -5.956,-0.9660000000000002 -8.794,-2.888 l1.3290000000000002,-2.6550000000000002 c2.442,1.223 4.6530000000000005,1.831 6.638,1.831 c1.863,0 3.319,-0.4130000000000001 4.375,-1.232 c1.055,-0.8220000000000002 1.6840000000000004,-1.975 1.6840000000000004,-3.433 c0,-1.8370000000000002 -1.2810000000000001,-3.407 -3.6310000000000002,-4.722 c-2.167,-1.19 -6.501,-3.678 -6.501,-3.678 c-2.349,-1.7120000000000002 -3.525,-3.55 -3.525,-6.578 c0,-2.5060000000000002 0.8770000000000002,-4.529 2.632,-6.068 c1.7570000000000001,-1.545 4.024,-2.315 6.803,-2.315 c2.87,0 5.479,0.7690000000000002 7.829,2.291 l-1.192,2.656 c-2.01,-0.8540000000000002 -3.9939999999999998,-1.2810000000000001 -5.9510000000000005,-1.2810000000000001 c-1.585,0 -2.809,0.3810000000000001 -3.66,1.146 c-0.8580000000000002,0.7620000000000002 -1.387,1.737 -1.387,2.933 c0,1.828 1.308,3.418 3.722,4.759 c2.196,1.192 6.638,3.723 6.638,3.723 c2.409,1.709 3.612,3.5300000000000002 3.612,6.534 " fill="#f8981d" data-darkreader-inline-fill="" style="--darkreader-inline-fill:#b96a06;" class="" id="svg_7"/><path d="M137.44429635810852,90.61503689575196 h0.774 v-3.7880000000000003 h-1.161 l-0.9470000000000002,2.585 l-1.029,-2.585 h-1.118 v3.7880000000000003 h0.7310000000000002 v-2.882 h0.041000000000000016 l1.078,2.882 h0.557 l1.074,-2.882 v2.882 zm-6.235,0 h0.8190000000000002 v-3.146 h1.072 v-0.6430000000000002 h-3.008 v0.6430000000000002 h1.115 l0.002000000000000001,3.146 z" fill="#f8981d" data-darkreader-inline-fill="" style="--darkreader-inline-fill:#f9a02f;" class="" id="svg_9"/><path d="M127.67829635810853,90.62003689575195 h-14.7 V59.701036895751955 h4.945 v27.113 h9.755 v3.806 zM109.13029635810852,91.36703689575195 l-5.684,-2.805 c0.504,-0.41400000000000003 0.986,-0.8620000000000001 1.42,-1.381 c2.416,-2.838 3.621,-7.035 3.621,-12.594 c0,-10.229 -4.014,-15.346 -12.045,-15.346 c-3.938,0 -7.01,1.298 -9.207,3.895 c-2.414,2.84 -3.619,7.022 -3.619,12.551 c0,5.4350000000000005 1.068,9.422 3.205,11.951 c1.955,2.291 4.902,3.438 8.843,3.438 c1.47,0 2.819,-0.18000000000000002 4.048,-0.543 l7.4,4.308 l2.018,-3.474 zm-18.413,-6.934 c-1.252,-2.014 -1.8780000000000001,-5.248 -1.8780000000000001,-9.707 c0,-7.785 2.365,-11.682 7.1,-11.682 c2.475,0 4.289,0.932 5.449,2.792 c1.25,2.017 1.879,5.222 1.879,9.619 c0,7.849 -2.367,11.774000000000001 -7.099,11.774000000000001 c-2.476,0.0010000000000000002 -4.29,-0.928 -5.451,-2.7960000000000003 M81.46129635810853,82.05003689575196 c0,2.622 -0.9620000000000001,4.773 -2.8840000000000003,6.458 c-1.924,1.6780000000000002 -4.504,2.519 -7.737,2.519 c-3.024,0 -5.956,-0.9660000000000001 -8.794,-2.888 l1.3290000000000002,-2.6550000000000002 c2.442,1.223 4.6530000000000005,1.831 6.638,1.831 c1.863,0 3.319,-0.41300000000000003 4.375,-1.232 c1.055,-0.8220000000000001 1.6840000000000002,-1.975 1.6840000000000002,-3.433 c0,-1.8370000000000002 -1.2810000000000001,-3.407 -3.6310000000000002,-4.722 c-2.167,-1.19 -6.501,-3.678 -6.501,-3.678 c-2.349,-1.7120000000000002 -3.525,-3.55 -3.525,-6.578 c0,-2.5060000000000002 0.8770000000000001,-4.529 2.632,-6.068 c1.7570000000000001,-1.545 4.024,-2.315 6.803,-2.315 c2.87,0 5.479,0.7690000000000001 7.829,2.291 l-1.192,2.656 c-2.01,-0.8540000000000001 -3.9939999999999998,-1.2810000000000001 -5.9510000000000005,-1.2810000000000001 c-1.585,0 -2.809,0.38100000000000006 -3.66,1.146 c-0.8580000000000001,0.7620000000000001 -1.387,1.737 -1.387,2.933 c0,1.828 1.308,3.418 3.722,4.759 c2.196,1.192 6.638,3.723 6.638,3.723 c2.409,1.709 3.612,3.5300000000000002 3.612,6.534 " fill="#f8981d" id="svg_3" data-darkreader-inline-fill="" style="--darkreader-inline-fill:#b96a06;" class=""/></g></svg>