<svg xmlns="http://www.w3.org/2000/svg" xmlns:xlink="http://www.w3.org/1999/xlink" version="1.1" style="" xml:space="preserve" width="1312.3333351877" height="1744.6666695806712"><rect id="backgroundrect" width="100%" height="100%" x="0" y="0" fill="none" stroke="none" data-darkreader-inline-fill="" data-darkreader-inline-stroke="" style="--darkreader-inline-fill:none; --darkreader-inline-stroke:none;" class=""/>
<style type="text/css">
	.st0{fill:#656565;}
	.st1{fill:url(#SVGID_1_);}
	.st2{fill:url(#SVGID_2_);}
	.st3{opacity:0.444;fill:url(#SVGID_3_);enable-background:new    ;}
</style><style class="darkreader darkreader--sync" media="screen"/>

<linearGradient id="SVGID_1_" gradientUnits="userSpaceOnUse" x1="12914.6376953125" y1="-27007.6796875" x2="12991.0263671875" y2="-27073.40234375" gradientTransform="matrix(9.2563 0 0 -9.3468 -119299.5781 -252400.0313)">
	<stop offset="0" style="stop-color:#5CA0D5"/>
	<stop offset="1" style="stop-color:#316A99"/>
</linearGradient>

<linearGradient id="SVGID_2_" gradientUnits="userSpaceOnUse" x1="13020.697265625" y1="-27113.1328125" x2="12993.4189453125" y2="-27074.5390625" gradientTransform="matrix(9.2563 0 0 -9.3468 -119299.5781 -252400.0313)">
	<stop offset="0" style="stop-color:#FFD43E"/>
	<stop offset="1" style="stop-color:#FFE975"/>
</linearGradient>


<radialGradient id="SVGID_3_" cx="-83039.6640625" cy="-13866.3984375" r="20.339599609375" gradientTransform="matrix(0 -3.9477 -17.3558 0 -239744.5313 -326357.7188)" gradientUnits="userSpaceOnUse">
	<stop offset="0" style="stop-color:#B8B8B8;stop-opacity:0.498"/>
	<stop offset="1" style="stop-color:#7F8080;stop-opacity:0"/>
</radialGradient>

<g class="currentLayer" style=""><title>Layer 1</title><path class="st0" d="M251.36450722083123,1526.8220721806113 c0,-53.33249062486085 -15.213064028566599,-79.94089158737276 -45.6970364356183,-80.92424553598735 c-12.378690882559892,-0.925509598696067 -23.774027816505217,1.9088635473106375 -35.227209100369045,5.726590641931914 c-9.54431773655319,2.8343731460067048 -15.213064028566599,6.6521002406279806 -18.105281524491808,9.54431773655319 v125.63792802299106 c19.030791123187875,12.378690882559892 36.15271869906512,18.105281524491808 51.42362707755022,17.121927575877237 C235.16808924365006,1601.036373126052 251.36450722083123,1575.3534817622362 251.36450722083123,1526.8220721806113 zM288.5005798685109,1528.7309357279219 c0,26.666245312430426 -5.726590641931914,48.53140958162501 -19.030791123187875,66.63669110611681 c-14.287554429870532,20.014145071802446 -33.31834555305841,30.483972407051706 -59.00123691687426,30.483972407051706 c-19.030791123187875,0.925509598696067 -38.06158224637575,-5.726590641931914 -58.0757273181782,-18.105281524491808 v114.24259108904576 L119.9999885559082,1710.5357275217807 v-254.16807354190735 c5.726590641931914,-6.6521002406279806 12.378690882559892,-12.378690882559892 20.014145071802446,-17.121927575877237 c19.030791123187875,-11.395336933945323 42.86266328961159,-17.121927575877237 69.47106425212351,-17.121927575877237 c24.757381765119785,0 44.71368248700373,10.469827335249258 58.0757273181782,30.483972407051706 C281.7906352779644,1474.472935504365 288.5005798685109,1498.2469633208702 288.5005798685109,1528.7309357279219 L288.5005798685109,1528.7309357279219 zM485.51843569093614,1603.9285906219773 c0,36.15271869906512 -3.8177270946212762,60.9101004641849 -10.469827335249258,74.27214529535937 c-7.635454189242551,13.304200481255961 -20.939654670498516,24.757381765119785 -40.95379974230096,33.31834555305841 c-17.121927575877237,6.6521002406279806 -34.243855151754474,10.469827335249258 -53.33249062486085,10.469827335249258 l-5.726590641931914,-20.014145071802446 c20.014145071802446,-2.8343731460067048 33.31834555305841,-5.726590641931914 40.95379974230096,-7.635454189242551 c15.213064028566599,-5.726590641931914 26.666245312430426,-13.304200481255961 32.334991604443836,-24.757381765119785 c4.743236693317342,-8.560963787938618 6.6521002406279806,-25.682891363815855 6.6521002406279806,-50.440273128935644 V1610.5806908626053 c-21.865164269194576,10.469827335249258 -45.6970364356183,15.213064028566599 -69.47106425212351,15.213064028566599 c-16.19641797718117,0 -30.483972407051706,-4.743236693317342 -41.87930934099703,-15.213064028566599 c-13.304200481255961,-10.469827335249258 -20.014145071802446,-24.757381765119785 -20.014145071802446,-41.87930934099703 v-134.1988918109297 l32.334991604443836,-11.395336933945323 v135.18224575954426 c0,14.287554429870532 4.743236693317342,25.682891363815855 14.287554429870532,33.31834555305841 c9.54431773655319,7.635454189242551 20.939654670498516,11.395336933945323 36.15271869906512,11.395336933945323 c15.213064028566599,0 30.483972407051706,-5.726590641931914 47.60589998292894,-17.121927575877237 V1427.7925451201322 h32.334991604443836 L485.51843569093614,1603.9285906219773 zM611.1563637139272,1624.8682452924756 H600.6865363786779 c-18.105281524491808,0 -32.334991604443836,-4.743236693317342 -42.86266328961159,-13.304200481255961 c-10.469827335249258,-8.560963787938618 -15.213064028566599,-20.939654670498516 -15.213064028566599,-36.15271869906512 v-127.5467915703017 h-21.865164269194576 V1427.7925451201322 h21.865164269194576 v-54.25800022355692 l32.334991604443836,-11.395336933945323 V1427.7925451201322 h36.15271869906512 v20.014145071802446 h-36.15271869906512 v125.63792802299106 c0,12.378690882559892 2.8343731460067048,20.939654670498516 9.54431773655319,25.682891363815855 c5.726590641931914,3.8177270946212762 14.287554429870532,6.6521002406279806 26.666245312430426,7.635454189242551 L611.1563637139272,1624.8682452924756 zM807.2487099376563,1621.9760277965504 h-32.334991604443836 v-124.71241842429501 c0,-12.378690882559892 -2.8343731460067048,-23.774027816505217 -8.560963787938618,-32.334991604443836 c-6.6521002406279806,-10.469827335249258 -16.19641797718117,-15.213064028566599 -28.575108859741064,-15.213064028566599 c-15.213064028566599,0 -33.31834555305841,7.635454189242551 -55.183509822252994,23.774027816505217 v149.46980018941477 h-32.334991604443836 v-297.95624643021506 l32.334991604443836,-10.469827335249258 v135.18224575954426 c20.939654670498516,-15.213064028566599 42.86266328961159,-22.84851821780915 67.56220070481288,-22.84851821780915 c17.121927575877237,0 30.483972407051706,5.726590641931914 41.87930934099703,17.121927575877237 c10.469827335249258,11.395336933945323 16.19641797718117,25.682891363815855 16.19641797718117,42.86266328961159 L807.2487099376563,1621.9760277965504 zM978.5836743962657,1521.0954815386792 c0,-20.014145071802446 -3.8177270946212762,-37.13607264767968 -11.395336933945323,-50.440273128935644 c-9.54431773655319,-16.19641797718117 -22.84851821780915,-24.757381765119785 -42.86266328961159,-25.682891363815855 c-35.227209100369045,1.9088635473106375 -53.33249062486085,27.591754911126497 -53.33249062486085,76.1231644927515 c0,22.84851821780915 3.8177270946212762,40.95379974230096 11.395336933945323,56.16686377086755 c9.54431773655319,19.030791123187875 23.774027816505217,28.575108859741064 42.86266328961159,28.575108859741064 C960.4783928717738,1604.8541002206732 978.5836743962657,1577.262345309547 978.5836743962657,1521.0954815386792 zM1013.8108834966349,1521.0954815386792 c0,28.575108859741064 -7.635454189242551,53.33249062486085 -21.865164269194576,72.36328174804872 c-16.19641797718117,20.939654670498516 -39.04493619499032,32.334991604443836 -66.63669110611681,32.334991604443836 c-28.575108859741064,0 -50.440273128935644,-10.469827335249258 -66.63669110611681,-32.334991604443836 c-14.287554429870532,-19.030791123187875 -21.865164269194576,-42.86266328961159 -21.865164269194576,-72.36328174804872 c0,-27.591754911126497 7.635454189242551,-50.440273128935644 23.774027816505217,-68.54555465342744 c17.121927575877237,-20.014145071802446 38.06158224637575,-29.50061845843713 64.72782755880618,-29.50061845843713 s48.53140958162501,9.54431773655319 65.65333715750225,29.50061845843713 C1006.1754293073923,1471.5807180084398 1013.8108834966349,1494.429236226249 1013.8108834966349,1521.0954815386792 zM1199.4334023851145,1621.9760277965504 h-32.334991604443836 v-131.364518664923 c0,-14.287554429870532 -4.743236693317342,-25.682891363815855 -13.304200481255961,-33.31834555305841 c-8.560963787938618,-7.635454189242551 -20.014145071802446,-12.378690882559892 -35.227209100369045,-11.395336933945323 c-15.213064028566599,0 -30.483972407051706,5.726590641931914 -43.78817288830766,15.213064028566599 V1623.8848913438612 h-32.334991604443836 v-166.59172776529203 c18.105281524491808,-13.304200481255961 35.227209100369045,-22.84851821780915 51.42362707755022,-26.666245312430426 c15.213064028566599,-3.8177270946212762 27.591754911126497,-5.726590641931914 39.04493619499032,-5.726590641931914 c7.635454189242551,0 15.213064028566599,0.925509598696067 21.865164269194576,1.9088635473106375 c12.378690882559892,2.8343731460067048 22.84851821780915,8.560963787938618 30.483972407051706,16.19641797718117 c8.560963787938618,8.560963787938618 13.304200481255961,20.014145071802446 13.304200481255961,32.334991604443836 L1199.4334023851145,1621.9760277965504 z" id="svg_1"/><path class="st1" d="M648.400015258789,16.966666507720948 c-52.7,0 -103.7,4.9 -148.1,13.2 c-131.6,23 -154.7,70.8 -154.7,161.3 v118.5 h309.4 v39.5 H230.40001525878904 c-88.9,0 -167.8,54.3 -192.5,156.3 c-28,118.5 -29.6,190.9 0,314.3 c21.4,92.2 74.1,156.3 164.6,156.3 h107 V834.866666507721 c0,-102 88.9,-192.5 192.5,-192.5 h307.7 c85.6,0 154.7,-70.8 154.7,-158 V189.76666650772094 c0,-83.9 -70.8,-146.5 -154.7,-161.3 C755.300015258789,20.26666650772095 701.0000152587891,15.366666507720947 648.400015258789,16.966666507720948 zM480.50001525878906,110.76666650772094 c31.3,0 57.6,26.3 57.6,59.2 s-26.3,59.2 -57.6,59.2 c-31.3,0 -57.6,-26.3 -57.6,-59.2 S447.6000152587891,110.76666650772094 480.50001525878906,110.76666650772094 z" id="svg_2"/><path class="st1" d="M648.400015258789,16.966666507720948 c-52.7,0 -103.7,4.9 -148.1,13.2 c-131.6,23 -154.7,70.8 -154.7,161.3 v118.5 h309.4 v39.5 H230.40001525878904 c-88.9,0 -167.8,54.3 -192.5,156.3 c-28,118.5 -29.6,190.9 0,314.3 c21.4,92.2 74.1,156.3 164.6,156.3 h107 V834.866666507721 c0,-102 88.9,-192.5 192.5,-192.5 h307.7 c85.6,0 154.7,-70.8 154.7,-158 V189.76666650772094 c0,-83.9 -70.8,-146.5 -154.7,-161.3 C755.300015258789,20.26666650772095 701.0000152587891,15.366666507720947 648.400015258789,16.966666507720948 zM480.50001525878906,110.76666650772094 c31.3,0 57.6,26.3 57.6,59.2 s-26.3,59.2 -57.6,59.2 c-31.3,0 -57.6,-26.3 -57.6,-59.2 S447.6000152587891,110.76666650772094 480.50001525878906,110.76666650772094 z" id="svg_6"/><path class="st2" d="M1002.2000152587891,346.0666665077209 V482.66666650772095 c0,107 -90.5,195.8 -194.2,195.8 H500.300015258789 c-83.9,0 -154.7,72.4 -154.7,158 v294.6 c0,83.9 72.4,133.3 154.7,158 c97.1,29.6 190.9,34.6 309.4,0 c77.3,-23 154.7,-67.5 154.7,-158 V1012.5666665077209 H654.900015258789 v-39.5 H1119.000015258789 c88.9,0 123.4,-62.5 154.7,-156.3 c32.9,-97.1 31.3,-189.2 0,-314.3 c-21.4,-88.9 -64.2,-156.3 -154.7,-156.3 L1002.2000152587891,346.0666665077209 zM827.7000152587891,1091.566666507721 c31.3,0 57.6,26.3 57.6,59.2 s-26.3,59.2 -57.6,59.2 c-31.3,0 -57.6,-26.3 -57.6,-59.2 S796.5000152587891,1091.566666507721 827.7000152587891,1091.566666507721 z" id="svg_3"/><path class="st2" d="M1002.2000152587891,346.0666665077209 V482.66666650772095 c0,107 -90.5,195.8 -194.2,195.8 H500.300015258789 c-83.9,0 -154.7,72.4 -154.7,158 v294.6 c0,83.9 72.4,133.3 154.7,158 c97.1,29.6 190.9,34.6 309.4,0 c77.3,-23 154.7,-67.5 154.7,-158 V1012.5666665077209 H654.900015258789 v-39.5 H1119.000015258789 c88.9,0 123.4,-62.5 154.7,-156.3 c32.9,-97.1 31.3,-189.2 0,-314.3 c-21.4,-88.9 -64.2,-156.3 -154.7,-156.3 L1002.2000152587891,346.0666665077209 zM827.7000152587891,1091.566666507721 c31.3,0 57.6,26.3 57.6,59.2 s-26.3,59.2 -57.6,59.2 c-31.3,0 -57.6,-26.3 -57.6,-59.2 S796.5000152587891,1091.566666507721 827.7000152587891,1091.566666507721 z" id="svg_5"/></g></svg>