<svg xmlns="http://www.w3.org/2000/svg" width="485.33333487462517" height="228" preserveAspectRatio="xMidYMid" style=""><rect id="backgroundrect" width="100%" height="100%" x="0" y="0" fill="none" stroke="none" data-darkreader-inline-fill="" data-darkreader-inline-stroke="" style="--darkreader-inline-fill:none; --darkreader-inline-stroke:none;" class=""/><defs><linearGradient x1="57.662%" y1="2.046%" x2="57.662%" y2="94.439%" id="a"><stop stop-color="#97D9F6" offset="0%"/><stop stop-color="#0F80CC" offset="92.024%"/><stop stop-color="#0F80CC" offset="100%"/></linearGradient></defs><g class="currentLayer" style=""><title>Layer 1</title><path d="M165.4290919494629,112.044 c-6.821,0 -12.368,2.02 -16.62,6.055 c-4.251,4.04 -6.408,9.335 -6.408,15.824 c0,3.362 0.535,6.428 1.59,9.237 c1.056,2.815 2.6990000000000003,5.423 4.907,7.78 c2.208,2.358 6.628,5.561 13.215,9.635 c8.084,4.934 13.373,8.939 15.912,12.066 c2.54,3.124 3.801,6.398 3.801,9.812 c0,4.57 -1.504,8.219 -4.597,10.961 c-3.097,2.744 -7.24,4.11 -12.375,4.11 c-5.417,0 -10.136,-1.909 -14.188,-5.7 c-4.052,-3.798 -6.098,-8.821 -6.144,-15.117 h-2.52 v22.851 h2.52 c0.77,-2.164 1.834,-3.27 3.227,-3.27 c0.6700000000000002,0 2.24,0.461 4.6850000000000005,1.3250000000000002 c5.949,2.117 10.834,3.138 14.674,3.138 c6.617,0 12.266,-2.317 16.972,-7.027 c4.7,-4.708 7.072,-10.387 7.072,-17.017 c0,-5.14 -1.566,-9.715 -4.640000000000001,-13.701 c-3.075,-3.992 -9.054,-8.635 -17.99,-13.967 c-7.689,-4.62 -12.68,-8.382 -14.983,-11.315 c-2.307,-2.9290000000000003 -3.492,-6.1690000000000005 -3.492,-9.724 c0,-3.845 1.413,-6.934 4.199,-9.238 c2.786,-2.305 6.437,-3.447 11.006,-3.447 c5.14,0 9.426,1.526 12.817,4.597 c3.388,3.076 5.347,7.339 5.923,12.817 h2.52 v-19.8 h-2.343 c-0.28700000000000003,1.009 -0.552,1.6540000000000001 -0.796,1.944 c-0.23700000000000002,0.28800000000000003 -0.6930000000000002,0.44200000000000006 -1.37,0.44200000000000006 c-0.8150000000000001,0 -2.268,-0.3430000000000001 -4.332,-1.017 c-4.42,-1.488 -8.495,-2.254 -12.243,-2.254 zm82.342,0 c-8.311,0 -15.857,1.96 -22.674,5.8790000000000004 c-6.828,3.912 -12.233,9.345 -16.221,16.265 c-3.987,6.92 -5.9670000000000005,14.268 -5.9670000000000005,22.1 c0,10.52 3.444,19.894 10.387,28.11 c6.946,8.21 15.27,13.326 24.928,15.293 c2.208,1.15 5.367,4.12 9.503,8.928 c4.66,5.425 8.603,9.338000000000001 11.845,11.668 a35.592,35.592 0 0 0 10.43,5.172 c3.7,1.126 7.699,1.6800000000000002 12.023,1.6800000000000002 c5.237,0 9.925,-0.911 14.055,-2.785 l-0.928,-2.299 c-2.3970000000000002,0.8650000000000001 -4.954,1.282 -7.646,1.282 c-3.6550000000000002,0 -7.348,-1.205 -11.05,-3.624 c-3.697,-2.426 -8.32,-7.053 -13.834,-13.879 c-2.592,-3.27 -4.381,-5.334 -5.393,-6.143 c10.568,-2.064 19.257,-7.185 26.034,-15.382 c6.774,-8.192 10.165,-17.542 10.165,-28.022 c0,-12.442 -4.427,-22.9 -13.215,-31.425 c-8.796,-8.527 -19.612000000000002,-12.818 -32.442,-12.818 zm51.403,0 l0.133,2.696 c5.533,0 8.633000000000001,1.6300000000000001 9.326,4.906 c0.258,1.173 0.37600000000000006,3.337 0.3970000000000001,6.453 l-0.04400000000000001,59.625 c-0.04600000000000001,4.453 -0.6800000000000002,7.296 -1.9,8.53 c-1.222,1.225 -3.287,1.9929999999999999 -6.276,2.298 l-0.133,2.697 h55.16 l1.415,-13.525 h-2.52 c-0.7200000000000001,3.684 -2.369,6.324 -4.994,7.823 c-2.633,1.51 -7.288,2.254 -14.011,2.254 h-5.216 c-6.05,0 -9.55,-2.187 -10.475,-6.586 c-0.19000000000000003,-0.8700000000000001 -0.256,-1.803 -0.265,-2.8280000000000003 l0.22000000000000003,-60.288 c0,-4.446 0.561,-7.425 1.725,-8.884 c1.175,-1.453 3.295,-2.266 6.364,-2.475 l-0.132,-2.696 h-28.774 zm-50.52,3.27 c9.375,0 17.028,3.693 22.94,11.139 c5.91,7.449 8.84,17.658 8.84,30.586 c0,12.25 -2.972,22.058 -8.928,29.436 c-5.957,7.376 -13.884,11.05 -23.735,11.05 c-9.464,0 -17.139,-3.789 -23.028,-11.403 c-5.884,-7.615 -8.795,-17.501 -8.795,-29.658 c0,-12.492 2.947,-22.492 8.884,-29.967 c5.933,-7.466 13.878,-11.182 23.823,-11.182 zm126.852,12.819 c-1.346,0 -2.371,0.454 -3.138,1.37 c-0.785,0.912 -1.026,2.017 -0.7520000000000001,3.359 c0.265,1.302 1,2.442 2.166,3.403 c1.1600000000000001,0.9600000000000001 2.411,1.459 3.757,1.459 c1.3010000000000002,0 2.293,-0.49900000000000005 3.005,-1.459 c0.7130000000000001,-0.9600000000000001 0.93,-2.101 0.6630000000000001,-3.403 c-0.274,-1.342 -0.983,-2.447 -2.077,-3.36 c-1.107,-0.915 -2.323,-1.37 -3.624,-1.37 zm36.375,9.149000000000001 c-2.286,8.794 -7.241,13.553 -14.85,14.32 l0.08800000000000002,2.52 h8.884 l-0.17700000000000002,29.79 c0.014000000000000002,5.093 0.17,8.484 0.53,10.21 c0.8760000000000001,4.131 3.574,6.232 8.089,6.232 c6.533,0 13.385,-3.98 20.552,-11.934 l-2.165,-1.856 c-5.175,5.238 -9.75,7.867 -13.746,7.867 c-2.456,0 -3.9779999999999998,-1.412 -4.553,-4.199 c-0.15700000000000003,-0.6770000000000002 -0.22000000000000003,-1.468 -0.22000000000000003,-2.387 l0.08800000000000002,-33.723 h13.569 l-0.133,-4.023 h-13.392 v-12.817 h-2.564 zm52.464,11.226 c-7.59,0 -13.763,3.685 -18.563,11.006 c-4.775,7.333 -6.253,15.458 -4.376,24.398 c1.105,5.236 3.306,9.294 6.674,12.154 c3.363,2.8600000000000003 7.6290000000000004,4.288 12.73,4.288 c4.748,0 11.36,-1.203 14.143,-3.625 c2.79,-2.42 5.36,-6.3420000000000005 7.735,-11.712 l-1.9,-1.99 c-3.7880000000000003,6.968 -11.43,10.476 -17.194,10.476 c-7.924,0 -12.777,-4.348 -14.586,-12.995 a31.614,31.614 0 0 1 -0.53,-3.536 c9.427,-1.492 16.571,-4.135 21.392,-7.955 c4.818,-3.823 9.655,-7.875 8.752,-12.155 c-0.538,-2.544 -1.858,-4.5440000000000005 -3.89,-6.055 c-2.058,-1.5110000000000001 -7.4,-2.299 -10.387,-2.299 zm-82.96,0.31000000000000005 l-16.354,3.757 v2.917 l5.657,-0.7070000000000001 c2.74,0 4.353,1.24 4.862,3.712 c0.171,0.8270000000000001 0.28,1.99 0.31000000000000005,3.448 l-0.17800000000000002,26.74 c-0.04500000000000001,3.7 -0.456,5.851 -1.2810000000000001,6.497 c-0.8330000000000001,0.6470000000000001 -3.029,0.973 -6.586,0.973 l-0.08800000000000002,2.519 h25.944 l-0.04400000000000001,-2.52 c-3.605,0 -5.942,-0.28400000000000003 -6.983,-0.8400000000000001 c-1.024,-0.55 -1.73,-1.5550000000000002 -2.033,-3.093 c-0.23500000000000001,-1.108 -0.3380000000000001,-3.018 -0.35400000000000004,-5.657 l0.08900000000000002,-37.746 h-2.962 zm78.806,4.95 c1.5790000000000002,0 3.104,0.6100000000000001 4.640000000000001,1.812 c1.516,1.198 2.439,2.5300000000000002 2.741,3.9779999999999998 c1.48,7.11 -4.823,12.024 -19.006,14.762 c-0.404,-5.183 0.49400000000000005,-9.89 2.785,-14.143 c2.274,-4.25 5.235,-6.409 8.84,-6.409 z" fill="#003B57" id="svg_1" data-darkreader-inline-fill="" style="--darkreader-inline-fill:#002f46;" class=""/><path d="M165.4290919494629,112.044 c-6.821,0 -12.368,2.02 -16.62,6.055 c-4.251,4.04 -6.408,9.335 -6.408,15.824 c0,3.362 0.535,6.428 1.59,9.237 c1.056,2.815 2.6990000000000007,5.423 4.907,7.78 c2.208,2.358 6.628,5.561 13.215,9.635 c8.084,4.934 13.373,8.939 15.912,12.066 c2.54,3.124 3.801,6.398 3.801,9.812 c0,4.57 -1.504,8.219 -4.597,10.961 c-3.097,2.744 -7.24,4.11 -12.375,4.11 c-5.417,0 -10.136,-1.909 -14.188,-5.7 c-4.052,-3.798 -6.098,-8.821 -6.144,-15.117 h-2.52 v22.851 h2.52 c0.77,-2.164 1.834,-3.27 3.227,-3.27 c0.6700000000000004,0 2.24,0.461 4.6850000000000005,1.3250000000000002 c5.949,2.117 10.834,3.138 14.674,3.138 c6.617,0 12.266,-2.317 16.972,-7.027 c4.7,-4.708 7.072,-10.387 7.072,-17.017 c0,-5.14 -1.566,-9.715 -4.6400000000000015,-13.701 c-3.075,-3.992 -9.054,-8.635 -17.99,-13.967 c-7.689,-4.62 -12.68,-8.382 -14.983,-11.315 c-2.307,-2.9290000000000003 -3.492,-6.1690000000000005 -3.492,-9.724 c0,-3.845 1.413,-6.934 4.199,-9.238 c2.786,-2.305 6.437,-3.447 11.006,-3.447 c5.14,0 9.426,1.526 12.817,4.597 c3.388,3.076 5.347,7.339 5.923,12.817 h2.52 v-19.8 h-2.343 c-0.2870000000000001,1.009 -0.552,1.6540000000000004 -0.796,1.944 c-0.23700000000000004,0.2880000000000001 -0.6930000000000004,0.4420000000000001 -1.37,0.4420000000000001 c-0.8150000000000002,0 -2.268,-0.3430000000000002 -4.332,-1.017 c-4.42,-1.488 -8.495,-2.254 -12.243,-2.254 zm82.342,0 c-8.311,0 -15.857,1.96 -22.674,5.8790000000000004 c-6.828,3.912 -12.233,9.345 -16.221,16.265 c-3.987,6.92 -5.9670000000000005,14.268 -5.9670000000000005,22.1 c0,10.52 3.444,19.894 10.387,28.11 c6.946,8.21 15.27,13.326 24.928,15.293 c2.208,1.15 5.367,4.12 9.503,8.928 c4.66,5.425 8.603,9.338000000000001 11.845,11.668 a35.592,35.592 0 0 0 10.43,5.172 c3.7,1.126 7.699,1.6800000000000004 12.023,1.6800000000000004 c5.237,0 9.925,-0.911 14.055,-2.785 l-0.928,-2.299 c-2.3970000000000002,0.8650000000000002 -4.954,1.282 -7.646,1.282 c-3.6550000000000002,0 -7.348,-1.205 -11.05,-3.624 c-3.697,-2.426 -8.32,-7.053 -13.834,-13.879 c-2.592,-3.27 -4.381,-5.334 -5.393,-6.143 c10.568,-2.064 19.257,-7.185 26.034,-15.382 c6.774,-8.192 10.165,-17.542 10.165,-28.022 c0,-12.442 -4.427,-22.9 -13.215,-31.425 c-8.796,-8.527 -19.612000000000002,-12.818 -32.442,-12.818 zm51.403,0 l0.133,2.696 c5.533,0 8.633000000000001,1.6300000000000003 9.326,4.906 c0.258,1.173 0.3760000000000001,3.337 0.3970000000000002,6.453 l-0.04400000000000002,59.625 c-0.04600000000000002,4.453 -0.6800000000000004,7.296 -1.9,8.53 c-1.222,1.225 -3.287,1.9929999999999999 -6.276,2.298 l-0.133,2.697 h55.16 l1.415,-13.525 h-2.52 c-0.7200000000000002,3.684 -2.369,6.324 -4.994,7.823 c-2.633,1.51 -7.288,2.254 -14.011,2.254 h-5.216 c-6.05,0 -9.55,-2.187 -10.475,-6.586 c-0.19000000000000006,-0.8700000000000002 -0.256,-1.803 -0.265,-2.8280000000000003 l0.22000000000000006,-60.288 c0,-4.446 0.561,-7.425 1.725,-8.884 c1.175,-1.453 3.295,-2.266 6.364,-2.475 l-0.132,-2.696 h-28.774 zm-50.52,3.27 c9.375,0 17.028,3.693 22.94,11.139 c5.91,7.449 8.84,17.658 8.84,30.586 c0,12.25 -2.972,22.058 -8.928,29.436 c-5.957,7.376 -13.884,11.05 -23.735,11.05 c-9.464,0 -17.139,-3.789 -23.028,-11.403 c-5.884,-7.615 -8.795,-17.501 -8.795,-29.658 c0,-12.492 2.947,-22.492 8.884,-29.967 c5.933,-7.466 13.878,-11.182 23.823,-11.182 zm126.852,12.819 c-1.346,0 -2.371,0.454 -3.138,1.37 c-0.785,0.912 -1.026,2.017 -0.7520000000000002,3.359 c0.265,1.302 1,2.442 2.166,3.403 c1.1600000000000001,0.9600000000000002 2.411,1.459 3.757,1.459 c1.3010000000000002,0 2.293,-0.4990000000000001 3.005,-1.459 c0.7130000000000002,-0.9600000000000002 0.93,-2.101 0.6630000000000003,-3.403 c-0.274,-1.342 -0.983,-2.447 -2.077,-3.36 c-1.107,-0.915 -2.323,-1.37 -3.624,-1.37 zm36.375,9.149000000000001 c-2.286,8.794 -7.241,13.553 -14.85,14.32 l0.08800000000000004,2.52 h8.884 l-0.17700000000000005,29.79 c0.014000000000000004,5.093 0.17,8.484 0.53,10.21 c0.8760000000000002,4.131 3.574,6.232 8.089,6.232 c6.533,0 13.385,-3.98 20.552,-11.934 l-2.165,-1.856 c-5.175,5.238 -9.75,7.867 -13.746,7.867 c-2.456,0 -3.9779999999999998,-1.412 -4.553,-4.199 c-0.15700000000000006,-0.6770000000000004 -0.22000000000000006,-1.468 -0.22000000000000006,-2.387 l0.08800000000000004,-33.723 h13.569 l-0.133,-4.023 h-13.392 v-12.817 h-2.564 zm52.464,11.226 c-7.59,0 -13.763,3.685 -18.563,11.006 c-4.775,7.333 -6.253,15.458 -4.376,24.398 c1.105,5.236 3.306,9.294 6.674,12.154 c3.363,2.8600000000000003 7.6290000000000004,4.288 12.73,4.288 c4.748,0 11.36,-1.203 14.143,-3.625 c2.79,-2.42 5.36,-6.3420000000000005 7.735,-11.712 l-1.9,-1.99 c-3.7880000000000003,6.968 -11.43,10.476 -17.194,10.476 c-7.924,0 -12.777,-4.348 -14.586,-12.995 a31.614,31.614 0 0 1 -0.53,-3.536 c9.427,-1.492 16.571,-4.135 21.392,-7.955 c4.818,-3.823 9.655,-7.875 8.752,-12.155 c-0.538,-2.544 -1.858,-4.5440000000000005 -3.89,-6.055 c-2.058,-1.5110000000000001 -7.4,-2.299 -10.387,-2.299 zm-82.96,0.3100000000000001 l-16.354,3.757 v2.917 l5.657,-0.7070000000000002 c2.74,0 4.353,1.24 4.862,3.712 c0.171,0.8270000000000002 0.28,1.99 0.3100000000000001,3.448 l-0.17800000000000005,26.74 c-0.04500000000000002,3.7 -0.456,5.851 -1.2810000000000001,6.497 c-0.8330000000000002,0.6470000000000002 -3.029,0.973 -6.586,0.973 l-0.08800000000000004,2.519 h25.944 l-0.04400000000000002,-2.52 c-3.605,0 -5.942,-0.2840000000000001 -6.983,-0.8400000000000002 c-1.024,-0.55 -1.73,-1.5550000000000002 -2.033,-3.093 c-0.23500000000000001,-1.108 -0.3380000000000002,-3.018 -0.3540000000000001,-5.657 l0.08900000000000004,-37.746 h-2.962 zm78.806,4.95 c1.5790000000000002,0 3.104,0.6100000000000002 4.6400000000000015,1.812 c1.516,1.198 2.439,2.5300000000000002 2.741,3.9779999999999998 c1.48,7.11 -4.823,12.024 -19.006,14.762 c-0.404,-5.183 0.4940000000000001,-9.89 2.785,-14.143 c2.274,-4.25 5.235,-6.409 8.84,-6.409 z" fill="#003B57" data-darkreader-inline-fill="" style="--darkreader-inline-fill:#002f46;" class="" id="svg_6"/><path d="M160.31224201965333,16.012605525970457 H19.57424201965332 C10.141242019653319,16.012605525970457 2.4242420196533203,23.73060552597046 2.4242420196533203,33.16260552597046 V188.37060552597046 c0,9.432 7.7170000000000005,17.15 17.15,17.15 h92.693 c-1.052,-46.122 14.698,-135.63 48.045,-189.508 z" fill="#0F80CC" data-darkreader-inline-fill="" style="--darkreader-inline-fill:#0c66a3;" class="" id="svg_7"/><path d="M170.95681705474854,21.015605525970457 H35.33181705474854 c-6.698,0 -12.148,5.449 -12.148,12.148 v143.883 c30.716,-11.788 76.817,-21.96 108.693,-21.498 c6.406,-33.494 25.232,-99.134 39.08,-134.533 z" fill="url(#a)" class="" id="svg_8"/><path d="M170.95681705474854,21.015605525970457 H35.33181705474854 c-6.698,0 -12.148,5.449 -12.148,12.148 v143.883 c30.716,-11.788 76.817,-21.96 108.693,-21.498 c6.406,-33.494 25.232,-99.134 39.08,-134.533 z" fill="url(#a)" class="" id="svg_9"/><path d="M160.31224201965333,16.012605525970457 H19.57424201965332 C10.141242019653319,16.012605525970457 2.4242420196533203,23.73060552597046 2.4242420196533203,33.16260552597046 V188.37060552597046 c0,9.432 7.7170000000000005,17.15 17.15,17.15 h92.693 c-1.052,-46.122 14.698,-135.63 48.045,-189.508 z" fill="#0F80CC" id="svg_2" data-darkreader-inline-fill="" style="--darkreader-inline-fill:#0c66a3;" class=""/><path d="M170.95681705474854,21.015605525970457 H35.33181705474854 c-6.698,0 -12.148,5.449 -12.148,12.148 v143.883 c30.716,-11.788 76.817,-21.96 108.693,-21.498 c6.406,-33.494 25.232,-99.134 39.08,-134.533 z" fill="url(#a)" id="svg_3" class=""/><path d="M170.95681705474854,21.015605525970457 H35.33181705474854 c-6.698,0 -12.148,5.449 -12.148,12.148 v143.883 c30.716,-11.788 76.817,-21.96 108.693,-21.498 c6.406,-33.494 25.232,-99.134 39.08,-134.533 z" fill="url(#a)" class="" id="svg_5"/><path d="M157.98772856235504,7.296242854118347 c-9.639,-8.595 -21.31,-5.143 -32.827,5.08 c-1.71,1.518 -3.416,3.203 -5.113,5.003 c-19.704,20.903 -37.994,59.62 -43.676,89.19 c2.214,4.489 3.943,10.217 5.081,14.593 c0.29200000000000026,1.122 0.555,2.176 0.7660000000000007,3.072 c0.5,2.122 0.7690000000000007,3.497 0.7690000000000007,3.497 s-0.17700000000000013,-0.6680000000000008 -0.902,-2.77 c-0.138,-0.403 -0.29200000000000026,-0.8430000000000005 -0.47400000000000025,-1.361 a15.78,15.78 0 0 0 -0.30400000000000027,-0.7520000000000006 c-1.2850000000000001,-2.988 -4.84,-9.294 -6.405,-12.04 a300.723,300.723 0 0 0 -3.511,10.983 c4.517,8.265 7.27,22.429 7.27,22.429 s-0.23900000000000013,-0.918 -1.374,-4.122 c-1.008,-2.833 -6.027,-11.628 -7.216,-13.684000000000001 c-2.034,7.509 -2.842,12.578 -2.113,13.812 c1.415,2.391 2.762,6.518 3.946,11.081 c2.673,10.28 4.53,22.796 4.53,22.796 s0.06000000000000005,0.8300000000000005 0.16200000000000017,2.106 c-0.3720000000000003,8.633000000000001 -0.14900000000000013,17.584 0.52,25.674 c0.8850000000000007,10.71 2.552,19.91 4.6770000000000005,24.834 l1.443,-0.786 c-3.12,-9.701 -4.388,-22.414 -3.833,-37.076 c0.8400000000000005,-22.41 5.997,-49.437 15.526,-77.606 c16.1,-42.523 38.436,-76.641 58.879,-92.935 c-18.633,16.828 -43.851,71.297 -51.4,91.467 c-8.453,22.588 -14.443,43.784 -18.053,64.092 c6.229,-19.039 26.368,-27.222 26.368,-27.222 s9.877,-12.182 21.42,-29.586 c-6.914,1.577 -18.268,4.277 -22.071,5.875 c-5.61,2.353 -7.121,3.156 -7.121,3.156 s18.17,-11.066 33.76,-16.076 c21.44,-33.768 44.799,-81.74 21.276,-102.724 " fill="#003B57" id="svg_4" data-darkreader-inline-fill="" style="--darkreader-inline-fill:#002f46;" class=""/></g></svg>